<svg width="68" height="61" viewBox="0 0 68 61" fill="none" xmlns="http://www.w3.org/2000/svg">
<path d="M61.1599 23.3223C61.9881 23.3223 62.6656 23.9999 62.6656 24.828V54.9234L62.1951 54.3117L49.3965 37.7489C48.9731 37.1937 48.3049 36.8737 47.6085 36.8737C46.9121 36.8737 46.2534 37.1937 45.8205 37.7489L38.0096 47.856L35.1393 43.8376C34.7159 43.2448 34.0383 42.8966 33.3043 42.8966C32.5702 42.8966 31.8927 43.2448 31.4692 43.847L23.9406 54.387L23.5171 54.9705V54.9422V24.828C23.5171 23.9999 24.1947 23.3223 25.0228 23.3223H61.1599ZM25.0228 18.8052C21.7009 18.8052 19 21.506 19 24.828V54.9422C19 58.2642 21.7009 60.9651 25.0228 60.9651H61.1599C64.4819 60.9651 67.1828 58.2642 67.1828 54.9422V24.828C67.1828 21.506 64.4819 18.8052 61.1599 18.8052H25.0228ZM32.5514 36.8737C33.1446 36.8737 33.732 36.7569 34.28 36.5299C34.8281 36.3029 35.326 35.9701 35.7455 35.5507C36.165 35.1312 36.4977 34.6333 36.7247 34.0852C36.9517 33.5372 37.0685 32.9498 37.0685 32.3566C37.0685 31.7634 36.9517 31.176 36.7247 30.6279C36.4977 30.0799 36.165 29.5819 35.7455 29.1625C35.326 28.743 34.8281 28.4103 34.28 28.1833C33.732 27.9563 33.1446 27.8394 32.5514 27.8394C31.9582 27.8394 31.3708 27.9563 30.8228 28.1833C30.2747 28.4103 29.7768 28.743 29.3573 29.1625C28.9379 29.5819 28.6051 30.0799 28.3781 30.6279C28.1511 31.176 28.0343 31.7634 28.0343 32.3566C28.0343 32.9498 28.1511 33.5372 28.3781 34.0852C28.6051 34.6333 28.9379 35.1312 29.3573 35.5507C29.7768 35.9701 30.2747 36.3029 30.8228 36.5299C31.3708 36.7569 31.9582 36.8737 32.5514 36.8737Z" fill="white"/>
<circle cx="18.2318" cy="18.8052" r="18" fill="black"/>
<path d="M17.3256 20.2114V19.7114H16.8256H13.0756C12.5724 19.7114 12.1693 19.3083 12.1693 18.8052C12.1693 18.302 12.5724 17.8989 13.0756 17.8989H16.8256H17.3256V17.3989V13.6489C17.3256 13.1458 17.7287 12.7427 18.2318 12.7427C18.735 12.7427 19.1381 13.1458 19.1381 13.6489V17.3989V17.8989H19.6381H23.3881C23.8912 17.8989 24.2943 18.302 24.2943 18.8052C24.2943 19.3083 23.8912 19.7114 23.3881 19.7114H19.6381H19.1381V20.2114V23.9614C19.1381 24.4646 18.735 24.8677 18.2318 24.8677C17.7287 24.8677 17.3256 24.4646 17.3256 23.9614V20.2114ZM18.2318 34.3052C22.3427 34.3052 26.2852 32.6721 29.192 29.7653C32.0988 26.8585 33.7318 22.916 33.7318 18.8052C33.7318 14.6943 32.0988 10.7518 29.192 7.84502C26.2852 4.93821 22.3427 3.30518 18.2318 3.30518C14.121 3.30518 10.1785 4.93821 7.27166 7.84502C4.36484 10.7518 2.73181 14.6943 2.73181 18.8052C2.73181 22.916 4.36484 26.8585 7.27166 29.7653C10.1785 32.6721 14.121 34.3052 18.2318 34.3052Z" fill="white" stroke="black"/>
</svg>
