<svg width="14" height="13" viewBox="0 0 14 13" fill="none" xmlns="http://www.w3.org/2000/svg">
<path d="M7.84533 9.29924C8.49788 9.20602 9.08589 8.83553 9.45161 8.27381L13.3167 2.2957C13.6179 1.8296 13.5414 1.2129 13.135 0.832847C12.7287 0.452792 12.1096 0.419328 11.665 0.753968L6.0072 4.99912C5.43354 5.42937 5.09411 6.10104 5.08933 6.81812L7.84533 9.29924ZM7.37684 9.90637L4.60411 7.41091C3.17471 7.4635 2.02977 8.64191 2.02977 10.0856C2.02977 10.1789 2.03455 10.2721 2.04411 10.3629C2.08713 10.7812 1.8003 11.233 1.37961 11.233H1.26488C0.841796 11.233 0.499985 11.5748 0.499985 11.9979C0.499985 12.421 0.841796 12.7628 1.26488 12.7628H4.70689C6.18648 12.7628 7.38401 11.5652 7.38401 10.0856C7.38401 10.0259 7.38162 9.96613 7.37923 9.90637H7.37684Z" fill="white"/>
</svg>
