<svg width="5" height="16" viewBox="0 0 5 16" fill="none" xmlns="http://www.w3.org/2000/svg">
<path d="M2.5 0.285706C1.96957 0.285706 1.46086 0.496419 1.08579 0.871492C0.710714 1.24656 0.5 1.75527 0.5 2.28571C0.5 2.81614 0.710714 3.32485 1.08579 3.69992C1.46086 4.07499 1.96957 4.28571 2.5 4.28571C3.03043 4.28571 3.53914 4.07499 3.91421 3.69992C4.28929 3.32485 4.5 2.81614 4.5 2.28571C4.5 1.75527 4.28929 1.24656 3.91421 0.871492C3.53914 0.496419 3.03043 0.285706 2.5 0.285706ZM2.5 5.99999C1.96957 5.99999 1.46086 6.21071 1.08579 6.58578C0.710714 6.96085 0.5 7.46956 0.5 7.99999C0.5 8.53042 0.710713 9.03913 1.08579 9.41421C1.46086 9.78928 1.96957 9.99999 2.5 9.99999C3.03043 9.99999 3.53914 9.78928 3.91421 9.41421C4.28929 9.03913 4.5 8.53042 4.5 7.99999C4.5 7.46956 4.28929 6.96085 3.91421 6.58578C3.53914 6.21071 3.03043 5.99999 2.5 5.99999ZM0.499999 13.7143C0.499999 14.2447 0.710713 14.7534 1.08579 15.1285C1.46086 15.5036 1.96957 15.7143 2.5 15.7143C3.03043 15.7143 3.53914 15.5036 3.91421 15.1285C4.28929 14.7534 4.5 14.2447 4.5 13.7143C4.5 13.1838 4.28929 12.6751 3.91421 12.3001C3.53914 11.925 3.03043 11.7143 2.5 11.7143C1.96957 11.7143 1.46086 11.925 1.08579 12.3001C0.710713 12.6751 0.499999 13.1838 0.499999 13.7143Z" fill="white"/>
</svg>
