<svg width="18" height="16" viewBox="0 0 18 16" fill="none" xmlns="http://www.w3.org/2000/svg">
<path d="M0.561768 2.76855C0.561768 1.73438 1.40259 0.893555 2.43677 0.893555H7.12427V4.64355C7.12427 5.16211 7.54321 5.58105 8.06177 5.58105H11.8118V9.33105H6.88989C6.50024 9.33105 6.18677 9.64453 6.18677 10.0342C6.18677 10.4238 6.50024 10.7373 6.88989 10.7373H11.8118V14.0186C11.8118 15.0527 10.9709 15.8936 9.93677 15.8936H2.43677C1.40259 15.8936 0.561768 15.0527 0.561768 14.0186V2.76855ZM11.8118 10.7373V9.33105H15.0374L13.8948 8.18848C13.6194 7.91309 13.6194 7.46777 13.8948 7.19531C14.1702 6.92285 14.6155 6.91992 14.8879 7.19531L17.2317 9.53906C17.5071 9.81445 17.5071 10.2598 17.2317 10.5322L14.8879 12.876C14.6125 13.1514 14.1672 13.1514 13.8948 12.876C13.6223 12.6006 13.6194 12.1553 13.8948 11.8828L15.0374 10.7402L11.8118 10.7373ZM11.8118 4.64355H8.06177V0.893555L11.8118 4.64355Z" fill="white"/>
</svg>
