<svg width="256" height="256" viewBox="0 0 256 256" fill="none" xmlns="http://www.w3.org/2000/svg">
<rect width="256" height="256" rx="128" fill="#22C580"/>
<rect width="256" height="256" rx="128" fill="#22C580"/>
<path d="M93.9481 205.55C80.8985 205.55 70.25 194.971 70.25 181.922V60.0783C70.25 47.0288 80.8288 36.45 93.8783 36.45H95.4455C107.63 36.45 117.507 46.3271 117.507 58.5111V79.0693C117.507 92.4971 134.215 98.6743 142.95 88.476V88.476C145.697 85.2685 149.709 83.4222 153.932 83.4222H156.879C174.602 83.4222 184.254 104.122 172.861 117.698L169.715 121.447C163.246 129.156 162.5 140.163 167.87 148.675L181.243 169.873C191.016 185.365 179.884 205.55 161.567 205.55V205.55C153.303 205.55 145.659 201.166 141.486 194.032L128.822 172.38C126.737 168.815 121.779 168.326 119.038 171.414V171.414C118.051 172.525 117.507 173.96 117.507 175.446V182.061C117.507 195.034 106.921 205.55 93.9481 205.55V205.55Z" fill="white"/>
</svg>
