<svg width="31" height="30" viewBox="0 0 31 30" fill="none" xmlns="http://www.w3.org/2000/svg">
<g clip-path="url(#clip0_37_1432)">
<path d="M13.7338 27.8843L12.6683 29.7542L1.12717 10.2844C3.0944 4.29747 8.73378 0 15.3732 0C17.8158 0 20.1109 0.574089 22.1437 1.60745C20.5863 2.5424 19.5372 4.26467 19.5372 6.21657C19.5372 8.59493 21.0781 10.5961 23.2093 11.3014L13.7338 27.8843Z" fill="#735CFF"/>
<path d="M23.1929 11.2848L13.7338 27.8842L12.6683 29.7541C13.5371 29.9181 14.4387 30.0001 15.3568 30.0001C23.6355 30.0001 30.3569 23.275 30.3569 14.9917C30.3569 12.9907 29.9635 11.0716 29.2586 9.33289C28.2913 10.6943 26.7011 11.5636 24.8979 11.5636C24.3241 11.5636 23.7667 11.4652 23.2421 11.3012L23.1929 11.2848Z" fill="#532EE3"/>
<path d="M12.652 29.7375C12.6028 29.7211 12.5372 29.7211 12.488 29.7047C5.56991 28.3596 0.35675 22.2743 0.35675 14.9751C0.35675 13.3349 0.619043 11.7439 1.11085 10.2676L12.652 29.7375Z" fill="#A2A0FF"/>
</g>
<defs>
<clipPath id="clip0_37_1432">
<rect width="30" height="30" fill="white" transform="translate(0.35675)"/>
</clipPath>
</defs>
</svg>
