<svg width="16" height="16" viewBox="0 0 16 16" fill="none" xmlns="http://www.w3.org/2000/svg">
<path d="M7.73181 15.285C9.72094 15.285 11.6286 14.4949 13.0351 13.0883C14.4416 11.6818 15.2318 9.77416 15.2318 7.78503C15.2318 5.79591 14.4416 3.88826 13.0351 2.48173C11.6286 1.07521 9.72094 0.285034 7.73181 0.285034C5.74269 0.285034 3.83503 1.07521 2.42851 2.48173C1.02199 3.88826 0.231812 5.79591 0.231812 7.78503C0.231812 9.77416 1.02199 11.6818 2.42851 13.0883C3.83503 14.4949 5.74269 15.285 7.73181 15.285ZM7.02869 10.3632V8.48816H5.15369C4.76404 8.48816 4.45056 8.17468 4.45056 7.78503C4.45056 7.39539 4.76404 7.08191 5.15369 7.08191H7.02869V5.20691C7.02869 4.81726 7.34216 4.50378 7.73181 4.50378C8.12146 4.50378 8.43494 4.81726 8.43494 5.20691V7.08191H10.3099C10.6996 7.08191 11.0131 7.39539 11.0131 7.78503C11.0131 8.17468 10.6996 8.48816 10.3099 8.48816H8.43494V10.3632C8.43494 10.7528 8.12146 11.0663 7.73181 11.0663C7.34216 11.0663 7.02869 10.7528 7.02869 10.3632Z" fill="white"/>
</svg>
