<svg width="14" height="13" viewBox="0 0 14 13" fill="none" xmlns="http://www.w3.org/2000/svg">
<path d="M3.93008 3.95378H5.33927C5.83515 3.95378 6.23577 4.3544 6.23577 4.85028C6.23577 5.34616 5.83515 5.74679 5.33927 5.74679H1.75325C1.25738 5.74679 0.85675 5.34616 0.85675 4.85028V1.26427C0.85675 0.768391 1.25738 0.367766 1.75325 0.367766C2.24913 0.367766 2.64976 0.768391 2.64976 1.26427V2.69867L3.14283 2.2056C5.59421 -0.245779 9.56684 -0.245779 12.0182 2.2056C14.4696 4.65697 14.4696 8.62961 12.0182 11.081C9.56684 13.5324 5.59421 13.5324 3.14283 11.081C2.79264 10.7308 2.79264 10.1621 3.14283 9.81187C3.49303 9.46167 4.06175 9.46167 4.41195 9.81187C6.16293 11.5629 9.00092 11.5629 10.7519 9.81187C12.5029 8.06089 12.5029 5.22289 10.7519 3.47191C9.00092 1.72093 6.16293 1.72093 4.41195 3.47191L3.93008 3.95378Z" fill="white"/>
</svg>
